<mxfile host="app.diagrams.net" agent="Mozilla/5.0 (Windows NT 10.0; Win64; x64) AppleWebKit/537.36 (KHTML, like Gecko) Chrome/129.0.0.0 Safari/537.36" version="24.7.17">
  <diagram name="Página-1" id="8BGDTDJeWKM5IeX-bzNp">
    <mxGraphModel dx="3027" dy="2319" grid="1" gridSize="10" guides="1" tooltips="1" connect="1" arrows="1" fold="1" page="1" pageScale="1" pageWidth="827" pageHeight="1169" math="0" shadow="0">
      <root>
        <mxCell id="0" />
        <mxCell id="1" parent="0" />
        <mxCell id="o7DQFZc0UQr-MpQ6-a8O-60" style="edgeStyle=orthogonalEdgeStyle;rounded=0;orthogonalLoop=1;jettySize=auto;html=1;entryX=0;entryY=0.5;entryDx=0;entryDy=0;endArrow=none;endFill=0;" edge="1" parent="1" source="o7DQFZc0UQr-MpQ6-a8O-1" target="o7DQFZc0UQr-MpQ6-a8O-22">
          <mxGeometry relative="1" as="geometry" />
        </mxCell>
        <mxCell id="o7DQFZc0UQr-MpQ6-a8O-108" value="&lt;b&gt;&lt;i&gt;N&lt;/i&gt;&lt;/b&gt;" style="edgeLabel;html=1;align=center;verticalAlign=middle;resizable=0;points=[];" vertex="1" connectable="0" parent="o7DQFZc0UQr-MpQ6-a8O-60">
          <mxGeometry x="-0.4051" y="1" relative="1" as="geometry">
            <mxPoint as="offset" />
          </mxGeometry>
        </mxCell>
        <mxCell id="o7DQFZc0UQr-MpQ6-a8O-65" style="edgeStyle=orthogonalEdgeStyle;rounded=0;orthogonalLoop=1;jettySize=auto;html=1;entryX=0.5;entryY=1;entryDx=0;entryDy=0;endArrow=none;endFill=0;" edge="1" parent="1" source="o7DQFZc0UQr-MpQ6-a8O-1" target="o7DQFZc0UQr-MpQ6-a8O-64">
          <mxGeometry relative="1" as="geometry" />
        </mxCell>
        <mxCell id="o7DQFZc0UQr-MpQ6-a8O-110" value="&lt;b&gt;&lt;i&gt;1&lt;/i&gt;&lt;/b&gt;" style="edgeLabel;html=1;align=center;verticalAlign=middle;resizable=0;points=[];" vertex="1" connectable="0" parent="o7DQFZc0UQr-MpQ6-a8O-65">
          <mxGeometry x="-0.4071" y="2" relative="1" as="geometry">
            <mxPoint as="offset" />
          </mxGeometry>
        </mxCell>
        <mxCell id="o7DQFZc0UQr-MpQ6-a8O-1" value="Médico" style="rounded=0;whiteSpace=wrap;html=1;" vertex="1" parent="1">
          <mxGeometry x="90" y="400" width="120" height="60" as="geometry" />
        </mxCell>
        <mxCell id="o7DQFZc0UQr-MpQ6-a8O-2" value="Especialidade" style="ellipse;whiteSpace=wrap;html=1;" vertex="1" parent="1">
          <mxGeometry x="163" y="520" width="80" height="40" as="geometry" />
        </mxCell>
        <mxCell id="o7DQFZc0UQr-MpQ6-a8O-3" value="Nome" style="ellipse;whiteSpace=wrap;html=1;" vertex="1" parent="1">
          <mxGeometry x="120" y="480" width="70" height="40" as="geometry" />
        </mxCell>
        <mxCell id="o7DQFZc0UQr-MpQ6-a8O-4" value="Tipo" style="ellipse;whiteSpace=wrap;html=1;" vertex="1" parent="1">
          <mxGeometry x="80" y="520" width="60" height="40" as="geometry" />
        </mxCell>
        <mxCell id="o7DQFZc0UQr-MpQ6-a8O-11" style="edgeStyle=orthogonalEdgeStyle;rounded=0;orthogonalLoop=1;jettySize=auto;html=1;entryX=0.646;entryY=1.004;entryDx=0;entryDy=0;entryPerimeter=0;endArrow=none;endFill=0;" edge="1" parent="1" source="o7DQFZc0UQr-MpQ6-a8O-3" target="o7DQFZc0UQr-MpQ6-a8O-1">
          <mxGeometry relative="1" as="geometry" />
        </mxCell>
        <mxCell id="o7DQFZc0UQr-MpQ6-a8O-12" style="edgeStyle=orthogonalEdgeStyle;rounded=0;orthogonalLoop=1;jettySize=auto;html=1;entryX=0.169;entryY=1.016;entryDx=0;entryDy=0;entryPerimeter=0;endArrow=none;endFill=0;" edge="1" parent="1" source="o7DQFZc0UQr-MpQ6-a8O-4" target="o7DQFZc0UQr-MpQ6-a8O-1">
          <mxGeometry relative="1" as="geometry" />
        </mxCell>
        <mxCell id="o7DQFZc0UQr-MpQ6-a8O-13" style="edgeStyle=orthogonalEdgeStyle;rounded=0;orthogonalLoop=1;jettySize=auto;html=1;entryX=0.943;entryY=0.987;entryDx=0;entryDy=0;entryPerimeter=0;endArrow=none;endFill=0;" edge="1" parent="1" source="o7DQFZc0UQr-MpQ6-a8O-2" target="o7DQFZc0UQr-MpQ6-a8O-1">
          <mxGeometry relative="1" as="geometry" />
        </mxCell>
        <mxCell id="o7DQFZc0UQr-MpQ6-a8O-14" value="Especialidade" style="rounded=0;whiteSpace=wrap;html=1;" vertex="1" parent="1">
          <mxGeometry x="531" y="400" width="120" height="60" as="geometry" />
        </mxCell>
        <mxCell id="o7DQFZc0UQr-MpQ6-a8O-15" value="Residente" style="ellipse;whiteSpace=wrap;html=1;" vertex="1" parent="1">
          <mxGeometry x="-20" y="417" width="70" height="40" as="geometry" />
        </mxCell>
        <mxCell id="o7DQFZc0UQr-MpQ6-a8O-16" value="Especialista" style="ellipse;whiteSpace=wrap;html=1;" vertex="1" parent="1">
          <mxGeometry y="350" width="70" height="40" as="geometry" />
        </mxCell>
        <mxCell id="o7DQFZc0UQr-MpQ6-a8O-17" value="Generalista" style="ellipse;whiteSpace=wrap;html=1;" vertex="1" parent="1">
          <mxGeometry y="490" width="70" height="40" as="geometry" />
        </mxCell>
        <mxCell id="o7DQFZc0UQr-MpQ6-a8O-18" value="Pediatria" style="ellipse;whiteSpace=wrap;html=1;" vertex="1" parent="1">
          <mxGeometry x="502" y="580" width="70" height="40" as="geometry" />
        </mxCell>
        <mxCell id="o7DQFZc0UQr-MpQ6-a8O-63" style="edgeStyle=orthogonalEdgeStyle;rounded=0;orthogonalLoop=1;jettySize=auto;html=1;entryX=1;entryY=0.75;entryDx=0;entryDy=0;endArrow=none;endFill=0;" edge="1" parent="1" source="o7DQFZc0UQr-MpQ6-a8O-19" target="o7DQFZc0UQr-MpQ6-a8O-14">
          <mxGeometry relative="1" as="geometry" />
        </mxCell>
        <mxCell id="o7DQFZc0UQr-MpQ6-a8O-19" value="&lt;span style=&quot;color: rgb(32, 33, 36); text-align: start; white-space-collapse: preserve; background-color: rgb(255, 255, 255);&quot;&gt;&lt;font style=&quot;font-size: 10px;&quot; face=&quot;Helvetica&quot;&gt;Gastroenterologia &lt;/font&gt;&lt;/span&gt;" style="ellipse;whiteSpace=wrap;html=1;" vertex="1" parent="1">
          <mxGeometry x="651" y="520" width="89" height="40" as="geometry" />
        </mxCell>
        <mxCell id="o7DQFZc0UQr-MpQ6-a8O-20" value="Clinica Geral" style="ellipse;whiteSpace=wrap;html=1;" vertex="1" parent="1">
          <mxGeometry x="610" y="585" width="70" height="40" as="geometry" />
        </mxCell>
        <mxCell id="o7DQFZc0UQr-MpQ6-a8O-51" style="edgeStyle=orthogonalEdgeStyle;rounded=0;orthogonalLoop=1;jettySize=auto;html=1;entryX=0.5;entryY=1;entryDx=0;entryDy=0;endArrow=none;endFill=0;" edge="1" parent="1" source="o7DQFZc0UQr-MpQ6-a8O-21" target="o7DQFZc0UQr-MpQ6-a8O-14">
          <mxGeometry relative="1" as="geometry" />
        </mxCell>
        <mxCell id="o7DQFZc0UQr-MpQ6-a8O-21" value="Dermatologia" style="ellipse;whiteSpace=wrap;html=1;" vertex="1" parent="1">
          <mxGeometry x="546" y="520" width="90" height="40" as="geometry" />
        </mxCell>
        <mxCell id="o7DQFZc0UQr-MpQ6-a8O-61" style="edgeStyle=orthogonalEdgeStyle;rounded=0;orthogonalLoop=1;jettySize=auto;html=1;entryX=0;entryY=0.5;entryDx=0;entryDy=0;endArrow=none;endFill=0;" edge="1" parent="1" source="o7DQFZc0UQr-MpQ6-a8O-22" target="o7DQFZc0UQr-MpQ6-a8O-14">
          <mxGeometry relative="1" as="geometry" />
        </mxCell>
        <mxCell id="o7DQFZc0UQr-MpQ6-a8O-109" value="&lt;b&gt;&lt;i&gt;N&lt;/i&gt;&lt;/b&gt;" style="edgeLabel;html=1;align=center;verticalAlign=middle;resizable=0;points=[];" vertex="1" connectable="0" parent="o7DQFZc0UQr-MpQ6-a8O-61">
          <mxGeometry x="0.2973" y="2" relative="1" as="geometry">
            <mxPoint as="offset" />
          </mxGeometry>
        </mxCell>
        <mxCell id="o7DQFZc0UQr-MpQ6-a8O-22" value="Tem" style="rhombus;whiteSpace=wrap;html=1;" vertex="1" parent="1">
          <mxGeometry x="340" y="400" width="80" height="60" as="geometry" />
        </mxCell>
        <mxCell id="o7DQFZc0UQr-MpQ6-a8O-77" style="edgeStyle=orthogonalEdgeStyle;rounded=0;orthogonalLoop=1;jettySize=auto;html=1;entryX=0.5;entryY=0;entryDx=0;entryDy=0;endArrow=none;endFill=0;" edge="1" parent="1" source="o7DQFZc0UQr-MpQ6-a8O-24" target="o7DQFZc0UQr-MpQ6-a8O-75">
          <mxGeometry relative="1" as="geometry" />
        </mxCell>
        <mxCell id="o7DQFZc0UQr-MpQ6-a8O-113" value="&lt;b&gt;&lt;i&gt;1&lt;/i&gt;&lt;/b&gt;" style="edgeLabel;html=1;align=center;verticalAlign=middle;resizable=0;points=[];" vertex="1" connectable="0" parent="o7DQFZc0UQr-MpQ6-a8O-77">
          <mxGeometry x="0.5333" y="-3" relative="1" as="geometry">
            <mxPoint y="1" as="offset" />
          </mxGeometry>
        </mxCell>
        <mxCell id="o7DQFZc0UQr-MpQ6-a8O-24" value="Paciente" style="rounded=0;whiteSpace=wrap;html=1;" vertex="1" parent="1">
          <mxGeometry x="90" y="-440" width="120" height="60" as="geometry" />
        </mxCell>
        <mxCell id="o7DQFZc0UQr-MpQ6-a8O-25" value="Nome" style="ellipse;whiteSpace=wrap;html=1;" vertex="1" parent="1">
          <mxGeometry x="-30" y="-480" width="70" height="40" as="geometry" />
        </mxCell>
        <mxCell id="o7DQFZc0UQr-MpQ6-a8O-26" value="Data_Nasc" style="ellipse;whiteSpace=wrap;html=1;" vertex="1" parent="1">
          <mxGeometry x="50" y="-330" width="70" height="40" as="geometry" />
        </mxCell>
        <mxCell id="o7DQFZc0UQr-MpQ6-a8O-80" style="edgeStyle=orthogonalEdgeStyle;rounded=0;orthogonalLoop=1;jettySize=auto;html=1;entryX=0;entryY=0.5;entryDx=0;entryDy=0;endArrow=none;endFill=0;" edge="1" parent="1" source="o7DQFZc0UQr-MpQ6-a8O-27" target="o7DQFZc0UQr-MpQ6-a8O-24">
          <mxGeometry relative="1" as="geometry" />
        </mxCell>
        <mxCell id="o7DQFZc0UQr-MpQ6-a8O-27" value="Endereço" style="ellipse;whiteSpace=wrap;html=1;" vertex="1" parent="1">
          <mxGeometry x="-60" y="-430" width="70" height="40" as="geometry" />
        </mxCell>
        <mxCell id="o7DQFZc0UQr-MpQ6-a8O-81" style="edgeStyle=orthogonalEdgeStyle;rounded=0;orthogonalLoop=1;jettySize=auto;html=1;entryX=0.25;entryY=1;entryDx=0;entryDy=0;endArrow=none;endFill=0;" edge="1" parent="1" source="o7DQFZc0UQr-MpQ6-a8O-28" target="o7DQFZc0UQr-MpQ6-a8O-24">
          <mxGeometry relative="1" as="geometry" />
        </mxCell>
        <mxCell id="o7DQFZc0UQr-MpQ6-a8O-28" value="Telefone" style="ellipse;whiteSpace=wrap;html=1;" vertex="1" parent="1">
          <mxGeometry x="-10" y="-380" width="70" height="40" as="geometry" />
        </mxCell>
        <mxCell id="o7DQFZc0UQr-MpQ6-a8O-85" style="edgeStyle=orthogonalEdgeStyle;rounded=0;orthogonalLoop=1;jettySize=auto;html=1;endArrow=none;endFill=0;" edge="1" parent="1" source="o7DQFZc0UQr-MpQ6-a8O-29" target="o7DQFZc0UQr-MpQ6-a8O-24">
          <mxGeometry relative="1" as="geometry" />
        </mxCell>
        <mxCell id="o7DQFZc0UQr-MpQ6-a8O-29" value="E-mail" style="ellipse;whiteSpace=wrap;html=1;" vertex="1" parent="1">
          <mxGeometry x="270" y="-430" width="70" height="40" as="geometry" />
        </mxCell>
        <mxCell id="o7DQFZc0UQr-MpQ6-a8O-30" value="CPF" style="ellipse;whiteSpace=wrap;html=1;" vertex="1" parent="1">
          <mxGeometry x="168" y="-330" width="70" height="40" as="geometry" />
        </mxCell>
        <mxCell id="o7DQFZc0UQr-MpQ6-a8O-84" style="edgeStyle=orthogonalEdgeStyle;rounded=0;orthogonalLoop=1;jettySize=auto;html=1;entryX=1;entryY=0.75;entryDx=0;entryDy=0;endArrow=none;endFill=0;" edge="1" parent="1" source="o7DQFZc0UQr-MpQ6-a8O-31" target="o7DQFZc0UQr-MpQ6-a8O-24">
          <mxGeometry relative="1" as="geometry" />
        </mxCell>
        <mxCell id="o7DQFZc0UQr-MpQ6-a8O-31" value="RG" style="ellipse;whiteSpace=wrap;html=1;" vertex="1" parent="1">
          <mxGeometry x="260" y="-360" width="70" height="40" as="geometry" />
        </mxCell>
        <mxCell id="o7DQFZc0UQr-MpQ6-a8O-86" style="edgeStyle=orthogonalEdgeStyle;rounded=0;orthogonalLoop=1;jettySize=auto;html=1;entryX=1;entryY=0.25;entryDx=0;entryDy=0;endArrow=none;endFill=0;" edge="1" parent="1" source="o7DQFZc0UQr-MpQ6-a8O-32" target="o7DQFZc0UQr-MpQ6-a8O-24">
          <mxGeometry relative="1" as="geometry" />
        </mxCell>
        <mxCell id="o7DQFZc0UQr-MpQ6-a8O-32" value="Convenio" style="ellipse;whiteSpace=wrap;html=1;" vertex="1" parent="1">
          <mxGeometry x="270" y="-480" width="70" height="40" as="geometry" />
        </mxCell>
        <mxCell id="o7DQFZc0UQr-MpQ6-a8O-106" style="edgeStyle=orthogonalEdgeStyle;rounded=0;orthogonalLoop=1;jettySize=auto;html=1;entryX=0.5;entryY=0;entryDx=0;entryDy=0;endArrow=none;endFill=0;" edge="1" parent="1" source="o7DQFZc0UQr-MpQ6-a8O-33" target="o7DQFZc0UQr-MpQ6-a8O-105">
          <mxGeometry relative="1" as="geometry" />
        </mxCell>
        <mxCell id="o7DQFZc0UQr-MpQ6-a8O-117" value="&lt;b&gt;&lt;i&gt;N&lt;/i&gt;&lt;/b&gt;" style="edgeLabel;html=1;align=center;verticalAlign=middle;resizable=0;points=[];" vertex="1" connectable="0" parent="o7DQFZc0UQr-MpQ6-a8O-106">
          <mxGeometry x="-0.1813" relative="1" as="geometry">
            <mxPoint as="offset" />
          </mxGeometry>
        </mxCell>
        <mxCell id="o7DQFZc0UQr-MpQ6-a8O-33" value="Convenio" style="rounded=0;whiteSpace=wrap;html=1;" vertex="1" parent="1">
          <mxGeometry x="90" y="-770" width="120" height="60" as="geometry" />
        </mxCell>
        <mxCell id="o7DQFZc0UQr-MpQ6-a8O-34" value="Nome" style="ellipse;whiteSpace=wrap;html=1;" vertex="1" parent="1">
          <mxGeometry x="35" y="-860" width="70" height="40" as="geometry" />
        </mxCell>
        <mxCell id="o7DQFZc0UQr-MpQ6-a8O-103" style="edgeStyle=orthogonalEdgeStyle;rounded=0;orthogonalLoop=1;jettySize=auto;html=1;entryX=0.75;entryY=0;entryDx=0;entryDy=0;endArrow=none;endFill=0;" edge="1" parent="1" source="o7DQFZc0UQr-MpQ6-a8O-35" target="o7DQFZc0UQr-MpQ6-a8O-33">
          <mxGeometry relative="1" as="geometry" />
        </mxCell>
        <mxCell id="o7DQFZc0UQr-MpQ6-a8O-35" value="CNPJ" style="ellipse;whiteSpace=wrap;html=1;" vertex="1" parent="1">
          <mxGeometry x="190" y="-860" width="70" height="40" as="geometry" />
        </mxCell>
        <mxCell id="o7DQFZc0UQr-MpQ6-a8O-102" style="edgeStyle=orthogonalEdgeStyle;rounded=0;orthogonalLoop=1;jettySize=auto;html=1;entryX=0.5;entryY=0;entryDx=0;entryDy=0;endArrow=none;endFill=0;" edge="1" parent="1" source="o7DQFZc0UQr-MpQ6-a8O-36" target="o7DQFZc0UQr-MpQ6-a8O-33">
          <mxGeometry relative="1" as="geometry" />
        </mxCell>
        <mxCell id="o7DQFZc0UQr-MpQ6-a8O-36" value="Tempo_Carencia" style="ellipse;whiteSpace=wrap;html=1;" vertex="1" parent="1">
          <mxGeometry x="105" y="-890" width="90" height="50" as="geometry" />
        </mxCell>
        <mxCell id="o7DQFZc0UQr-MpQ6-a8O-66" style="edgeStyle=orthogonalEdgeStyle;rounded=0;orthogonalLoop=1;jettySize=auto;html=1;entryX=0.5;entryY=0;entryDx=0;entryDy=0;endArrow=none;endFill=0;" edge="1" parent="1" source="o7DQFZc0UQr-MpQ6-a8O-37" target="o7DQFZc0UQr-MpQ6-a8O-64">
          <mxGeometry relative="1" as="geometry" />
        </mxCell>
        <mxCell id="o7DQFZc0UQr-MpQ6-a8O-112" value="&lt;b&gt;&lt;i&gt;N&lt;/i&gt;&lt;/b&gt;" style="edgeLabel;html=1;align=center;verticalAlign=middle;resizable=0;points=[];" vertex="1" connectable="0" parent="o7DQFZc0UQr-MpQ6-a8O-66">
          <mxGeometry x="0.5867" y="-2" relative="1" as="geometry">
            <mxPoint as="offset" />
          </mxGeometry>
        </mxCell>
        <mxCell id="o7DQFZc0UQr-MpQ6-a8O-95" style="edgeStyle=orthogonalEdgeStyle;rounded=0;orthogonalLoop=1;jettySize=auto;html=1;endArrow=none;endFill=0;" edge="1" parent="1" source="o7DQFZc0UQr-MpQ6-a8O-37" target="o7DQFZc0UQr-MpQ6-a8O-94">
          <mxGeometry relative="1" as="geometry" />
        </mxCell>
        <mxCell id="o7DQFZc0UQr-MpQ6-a8O-118" value="&lt;b&gt;&lt;i&gt;1&lt;/i&gt;&lt;/b&gt;" style="edgeLabel;html=1;align=center;verticalAlign=middle;resizable=0;points=[];" vertex="1" connectable="0" parent="o7DQFZc0UQr-MpQ6-a8O-95">
          <mxGeometry x="-0.2294" y="1" relative="1" as="geometry">
            <mxPoint as="offset" />
          </mxGeometry>
        </mxCell>
        <mxCell id="o7DQFZc0UQr-MpQ6-a8O-37" value="Consulta" style="rounded=0;whiteSpace=wrap;html=1;" vertex="1" parent="1">
          <mxGeometry x="90" y="-50" width="120" height="60" as="geometry" />
        </mxCell>
        <mxCell id="o7DQFZc0UQr-MpQ6-a8O-38" value="Data" style="ellipse;whiteSpace=wrap;html=1;" vertex="1" parent="1">
          <mxGeometry x="-40" y="-110" width="70" height="40" as="geometry" />
        </mxCell>
        <mxCell id="o7DQFZc0UQr-MpQ6-a8O-39" value="Hora" style="ellipse;whiteSpace=wrap;html=1;" vertex="1" parent="1">
          <mxGeometry x="168" y="120" width="70" height="40" as="geometry" />
        </mxCell>
        <mxCell id="o7DQFZc0UQr-MpQ6-a8O-40" value="Medico" style="ellipse;whiteSpace=wrap;html=1;" vertex="1" parent="1">
          <mxGeometry x="-40" y="-160" width="70" height="40" as="geometry" />
        </mxCell>
        <mxCell id="o7DQFZc0UQr-MpQ6-a8O-42" value="Paciente" style="ellipse;whiteSpace=wrap;html=1;" vertex="1" parent="1">
          <mxGeometry x="60" y="40" width="70" height="40" as="geometry" />
        </mxCell>
        <mxCell id="o7DQFZc0UQr-MpQ6-a8O-43" value="Valor&lt;span style=&quot;color: rgba(0, 0, 0, 0); font-family: monospace; font-size: 0px; text-align: start; text-wrap: nowrap;&quot;&gt;%3CmxGraphModel%3E%3Croot%3E%3CmxCell%20id%3D%220%22%2F%3E%3CmxCell%20id%3D%221%22%20parent%3D%220%22%2F%3E%3CmxCell%20id%3D%222%22%20value%3D%22Hora%22%20style%3D%22ellipse%3BwhiteSpace%3Dwrap%3Bhtml%3D1%3B%22%20vertex%3D%221%22%20parent%3D%221%22%3E%3CmxGeometry%20x%3D%22330%22%20y%3D%2250%22%20width%3D%2270%22%20height%3D%2240%22%20as%3D%22geometry%22%2F%3E%3C%2FmxCell%3E%3C%2Froot%3E%3C%2FmxGraphModel%3E&lt;/span&gt;&lt;span style=&quot;color: rgba(0, 0, 0, 0); font-family: monospace; font-size: 0px; text-align: start; text-wrap: nowrap;&quot;&gt;%3CmxGraphModel%3E%3Croot%3E%3CmxCell%20id%3D%220%22%2F%3E%3CmxCell%20id%3D%221%22%20parent%3D%220%22%2F%3E%3CmxCell%20id%3D%222%22%20value%3D%22Hora%22%20style%3D%22ellipse%3BwhiteSpace%3Dwrap%3Bhtml%3D1%3B%22%20vertex%3D%221%22%20parent%3D%221%22%3E%3CmxGeometry%20x%3D%22330%22%20y%3D%2250%22%20width%3D%2270%22%20height%3D%2240%22%20as%3D%22geometry%22%2F%3E%3C%2FmxCell%3E%3C%2Froot%3E%3C%2FmxGraphModel%3E&lt;/span&gt;" style="ellipse;whiteSpace=wrap;html=1;" vertex="1" parent="1">
          <mxGeometry y="80" width="70" height="40" as="geometry" />
        </mxCell>
        <mxCell id="o7DQFZc0UQr-MpQ6-a8O-71" style="edgeStyle=orthogonalEdgeStyle;rounded=0;orthogonalLoop=1;jettySize=auto;html=1;entryX=0;entryY=0.75;entryDx=0;entryDy=0;endArrow=none;endFill=0;" edge="1" parent="1" source="o7DQFZc0UQr-MpQ6-a8O-44" target="o7DQFZc0UQr-MpQ6-a8O-37">
          <mxGeometry relative="1" as="geometry" />
        </mxCell>
        <mxCell id="o7DQFZc0UQr-MpQ6-a8O-44" value="Convenio" style="ellipse;whiteSpace=wrap;html=1;" vertex="1" parent="1">
          <mxGeometry x="-40" y="30" width="70" height="40" as="geometry" />
        </mxCell>
        <mxCell id="o7DQFZc0UQr-MpQ6-a8O-67" style="edgeStyle=orthogonalEdgeStyle;rounded=0;orthogonalLoop=1;jettySize=auto;html=1;entryX=0;entryY=0.5;entryDx=0;entryDy=0;endArrow=none;endFill=0;" edge="1" parent="1" source="o7DQFZc0UQr-MpQ6-a8O-45" target="o7DQFZc0UQr-MpQ6-a8O-37">
          <mxGeometry relative="1" as="geometry" />
        </mxCell>
        <mxCell id="o7DQFZc0UQr-MpQ6-a8O-45" value="Num_Carteira" style="ellipse;whiteSpace=wrap;html=1;" vertex="1" parent="1">
          <mxGeometry x="-50" y="-45" width="80" height="50" as="geometry" />
        </mxCell>
        <mxCell id="o7DQFZc0UQr-MpQ6-a8O-46" value="Especialidade" style="ellipse;whiteSpace=wrap;html=1;" vertex="1" parent="1">
          <mxGeometry x="60" y="120" width="70" height="40" as="geometry" />
        </mxCell>
        <mxCell id="o7DQFZc0UQr-MpQ6-a8O-47" value="Receita" style="rounded=0;whiteSpace=wrap;html=1;" vertex="1" parent="1">
          <mxGeometry x="600" y="-50" width="120" height="60" as="geometry" />
        </mxCell>
        <mxCell id="o7DQFZc0UQr-MpQ6-a8O-48" value="Medicamento" style="ellipse;whiteSpace=wrap;html=1;" vertex="1" parent="1">
          <mxGeometry x="670" y="60" width="80" height="40" as="geometry" />
        </mxCell>
        <mxCell id="o7DQFZc0UQr-MpQ6-a8O-49" value="Quantidade" style="ellipse;whiteSpace=wrap;html=1;" vertex="1" parent="1">
          <mxGeometry x="571" y="50" width="80" height="40" as="geometry" />
        </mxCell>
        <mxCell id="o7DQFZc0UQr-MpQ6-a8O-98" style="edgeStyle=orthogonalEdgeStyle;rounded=0;orthogonalLoop=1;jettySize=auto;html=1;entryX=0.5;entryY=1;entryDx=0;entryDy=0;endArrow=none;endFill=0;" edge="1" parent="1" source="o7DQFZc0UQr-MpQ6-a8O-50" target="o7DQFZc0UQr-MpQ6-a8O-47">
          <mxGeometry relative="1" as="geometry" />
        </mxCell>
        <mxCell id="o7DQFZc0UQr-MpQ6-a8O-50" value="Instruções" style="ellipse;whiteSpace=wrap;html=1;" vertex="1" parent="1">
          <mxGeometry x="620" y="100" width="80" height="40" as="geometry" />
        </mxCell>
        <mxCell id="o7DQFZc0UQr-MpQ6-a8O-54" style="edgeStyle=orthogonalEdgeStyle;rounded=0;orthogonalLoop=1;jettySize=auto;html=1;endArrow=none;endFill=0;" edge="1" parent="1" source="o7DQFZc0UQr-MpQ6-a8O-20">
          <mxGeometry relative="1" as="geometry">
            <mxPoint x="645" y="460" as="targetPoint" />
          </mxGeometry>
        </mxCell>
        <mxCell id="o7DQFZc0UQr-MpQ6-a8O-55" style="edgeStyle=orthogonalEdgeStyle;rounded=0;orthogonalLoop=1;jettySize=auto;html=1;entryX=0.046;entryY=1.005;entryDx=0;entryDy=0;entryPerimeter=0;endArrow=none;endFill=0;" edge="1" parent="1" source="o7DQFZc0UQr-MpQ6-a8O-18" target="o7DQFZc0UQr-MpQ6-a8O-14">
          <mxGeometry relative="1" as="geometry" />
        </mxCell>
        <mxCell id="o7DQFZc0UQr-MpQ6-a8O-57" style="edgeStyle=orthogonalEdgeStyle;rounded=0;orthogonalLoop=1;jettySize=auto;html=1;entryX=0.063;entryY=1.038;entryDx=0;entryDy=0;entryPerimeter=0;endArrow=none;endFill=0;" edge="1" parent="1" source="o7DQFZc0UQr-MpQ6-a8O-17" target="o7DQFZc0UQr-MpQ6-a8O-1">
          <mxGeometry relative="1" as="geometry" />
        </mxCell>
        <mxCell id="o7DQFZc0UQr-MpQ6-a8O-58" style="edgeStyle=orthogonalEdgeStyle;rounded=0;orthogonalLoop=1;jettySize=auto;html=1;endArrow=none;endFill=0;" edge="1" parent="1" source="o7DQFZc0UQr-MpQ6-a8O-15">
          <mxGeometry relative="1" as="geometry">
            <mxPoint x="90" y="437" as="targetPoint" />
          </mxGeometry>
        </mxCell>
        <mxCell id="o7DQFZc0UQr-MpQ6-a8O-59" style="edgeStyle=orthogonalEdgeStyle;rounded=0;orthogonalLoop=1;jettySize=auto;html=1;entryX=0.158;entryY=-0.014;entryDx=0;entryDy=0;entryPerimeter=0;endArrow=none;endFill=0;" edge="1" parent="1" source="o7DQFZc0UQr-MpQ6-a8O-16" target="o7DQFZc0UQr-MpQ6-a8O-1">
          <mxGeometry relative="1" as="geometry" />
        </mxCell>
        <mxCell id="o7DQFZc0UQr-MpQ6-a8O-64" value="Realiza" style="rhombus;whiteSpace=wrap;html=1;" vertex="1" parent="1">
          <mxGeometry x="110" y="220" width="80" height="60" as="geometry" />
        </mxCell>
        <mxCell id="o7DQFZc0UQr-MpQ6-a8O-70" style="edgeStyle=orthogonalEdgeStyle;rounded=0;orthogonalLoop=1;jettySize=auto;html=1;entryX=0.043;entryY=1.014;entryDx=0;entryDy=0;entryPerimeter=0;endArrow=none;endFill=0;" edge="1" parent="1" source="o7DQFZc0UQr-MpQ6-a8O-42" target="o7DQFZc0UQr-MpQ6-a8O-37">
          <mxGeometry relative="1" as="geometry" />
        </mxCell>
        <mxCell id="o7DQFZc0UQr-MpQ6-a8O-72" style="edgeStyle=orthogonalEdgeStyle;rounded=0;orthogonalLoop=1;jettySize=auto;html=1;entryX=0;entryY=0.167;entryDx=0;entryDy=0;entryPerimeter=0;endArrow=none;endFill=0;" edge="1" parent="1" source="o7DQFZc0UQr-MpQ6-a8O-38" target="o7DQFZc0UQr-MpQ6-a8O-37">
          <mxGeometry relative="1" as="geometry" />
        </mxCell>
        <mxCell id="o7DQFZc0UQr-MpQ6-a8O-76" style="edgeStyle=orthogonalEdgeStyle;rounded=0;orthogonalLoop=1;jettySize=auto;html=1;entryX=0.5;entryY=0;entryDx=0;entryDy=0;endArrow=none;endFill=0;" edge="1" parent="1" source="o7DQFZc0UQr-MpQ6-a8O-75" target="o7DQFZc0UQr-MpQ6-a8O-37">
          <mxGeometry relative="1" as="geometry" />
        </mxCell>
        <mxCell id="o7DQFZc0UQr-MpQ6-a8O-114" value="&lt;b&gt;&lt;i&gt;N&lt;/i&gt;&lt;/b&gt;" style="edgeLabel;html=1;align=center;verticalAlign=middle;resizable=0;points=[];" vertex="1" connectable="0" parent="o7DQFZc0UQr-MpQ6-a8O-76">
          <mxGeometry x="-0.094" y="-1" relative="1" as="geometry">
            <mxPoint as="offset" />
          </mxGeometry>
        </mxCell>
        <mxCell id="o7DQFZc0UQr-MpQ6-a8O-75" value="Realiza" style="rhombus;whiteSpace=wrap;html=1;" vertex="1" parent="1">
          <mxGeometry x="110" y="-240" width="80" height="60" as="geometry" />
        </mxCell>
        <mxCell id="o7DQFZc0UQr-MpQ6-a8O-82" style="edgeStyle=orthogonalEdgeStyle;rounded=0;orthogonalLoop=1;jettySize=auto;html=1;entryX=0.438;entryY=0.994;entryDx=0;entryDy=0;entryPerimeter=0;endArrow=none;endFill=0;" edge="1" parent="1" source="o7DQFZc0UQr-MpQ6-a8O-26" target="o7DQFZc0UQr-MpQ6-a8O-24">
          <mxGeometry relative="1" as="geometry">
            <Array as="points">
              <mxPoint x="143" y="-310" />
            </Array>
          </mxGeometry>
        </mxCell>
        <mxCell id="o7DQFZc0UQr-MpQ6-a8O-83" style="edgeStyle=orthogonalEdgeStyle;rounded=0;orthogonalLoop=1;jettySize=auto;html=1;entryX=0.938;entryY=0.947;entryDx=0;entryDy=0;entryPerimeter=0;endArrow=none;endFill=0;" edge="1" parent="1" source="o7DQFZc0UQr-MpQ6-a8O-30" target="o7DQFZc0UQr-MpQ6-a8O-24">
          <mxGeometry relative="1" as="geometry" />
        </mxCell>
        <mxCell id="o7DQFZc0UQr-MpQ6-a8O-87" style="edgeStyle=orthogonalEdgeStyle;rounded=0;orthogonalLoop=1;jettySize=auto;html=1;entryX=-0.022;entryY=0.375;entryDx=0;entryDy=0;entryPerimeter=0;endArrow=none;endFill=0;" edge="1" parent="1" source="o7DQFZc0UQr-MpQ6-a8O-25" target="o7DQFZc0UQr-MpQ6-a8O-24">
          <mxGeometry relative="1" as="geometry" />
        </mxCell>
        <mxCell id="o7DQFZc0UQr-MpQ6-a8O-91" style="edgeStyle=orthogonalEdgeStyle;rounded=0;orthogonalLoop=1;jettySize=auto;html=1;entryX=0.1;entryY=0.05;entryDx=0;entryDy=0;entryPerimeter=0;endArrow=none;endFill=0;" edge="1" parent="1" source="o7DQFZc0UQr-MpQ6-a8O-40" target="o7DQFZc0UQr-MpQ6-a8O-37">
          <mxGeometry relative="1" as="geometry" />
        </mxCell>
        <mxCell id="o7DQFZc0UQr-MpQ6-a8O-92" style="edgeStyle=orthogonalEdgeStyle;rounded=0;orthogonalLoop=1;jettySize=auto;html=1;entryX=0.408;entryY=1.033;entryDx=0;entryDy=0;entryPerimeter=0;endArrow=none;endFill=0;" edge="1" parent="1" source="o7DQFZc0UQr-MpQ6-a8O-46" target="o7DQFZc0UQr-MpQ6-a8O-37">
          <mxGeometry relative="1" as="geometry">
            <Array as="points">
              <mxPoint x="139" y="140" />
            </Array>
          </mxGeometry>
        </mxCell>
        <mxCell id="o7DQFZc0UQr-MpQ6-a8O-93" style="edgeStyle=orthogonalEdgeStyle;rounded=0;orthogonalLoop=1;jettySize=auto;html=1;entryX=0.942;entryY=1;entryDx=0;entryDy=0;entryPerimeter=0;endArrow=none;endFill=0;" edge="1" parent="1" source="o7DQFZc0UQr-MpQ6-a8O-39" target="o7DQFZc0UQr-MpQ6-a8O-37">
          <mxGeometry relative="1" as="geometry" />
        </mxCell>
        <mxCell id="o7DQFZc0UQr-MpQ6-a8O-96" style="edgeStyle=orthogonalEdgeStyle;rounded=0;orthogonalLoop=1;jettySize=auto;html=1;endArrow=none;endFill=0;" edge="1" parent="1" source="o7DQFZc0UQr-MpQ6-a8O-94">
          <mxGeometry relative="1" as="geometry">
            <mxPoint x="600" y="-20" as="targetPoint" />
          </mxGeometry>
        </mxCell>
        <mxCell id="o7DQFZc0UQr-MpQ6-a8O-120" value="&lt;b&gt;&lt;i&gt;1&lt;/i&gt;&lt;/b&gt;" style="edgeLabel;html=1;align=center;verticalAlign=middle;resizable=0;points=[];" vertex="1" connectable="0" parent="o7DQFZc0UQr-MpQ6-a8O-96">
          <mxGeometry x="0.1565" relative="1" as="geometry">
            <mxPoint as="offset" />
          </mxGeometry>
        </mxCell>
        <mxCell id="o7DQFZc0UQr-MpQ6-a8O-94" value="Gera" style="rhombus;whiteSpace=wrap;html=1;" vertex="1" parent="1">
          <mxGeometry x="373.5" y="-50" width="80" height="60" as="geometry" />
        </mxCell>
        <mxCell id="o7DQFZc0UQr-MpQ6-a8O-99" style="edgeStyle=orthogonalEdgeStyle;rounded=0;orthogonalLoop=1;jettySize=auto;html=1;entryX=0.909;entryY=0.968;entryDx=0;entryDy=0;entryPerimeter=0;endArrow=none;endFill=0;" edge="1" parent="1" source="o7DQFZc0UQr-MpQ6-a8O-48" target="o7DQFZc0UQr-MpQ6-a8O-47">
          <mxGeometry relative="1" as="geometry" />
        </mxCell>
        <mxCell id="o7DQFZc0UQr-MpQ6-a8O-100" style="edgeStyle=orthogonalEdgeStyle;rounded=0;orthogonalLoop=1;jettySize=auto;html=1;entryX=0.093;entryY=0.968;entryDx=0;entryDy=0;entryPerimeter=0;endArrow=none;endFill=0;" edge="1" parent="1" source="o7DQFZc0UQr-MpQ6-a8O-49" target="o7DQFZc0UQr-MpQ6-a8O-47">
          <mxGeometry relative="1" as="geometry" />
        </mxCell>
        <mxCell id="o7DQFZc0UQr-MpQ6-a8O-101" style="edgeStyle=orthogonalEdgeStyle;rounded=0;orthogonalLoop=1;jettySize=auto;html=1;exitX=0.5;exitY=1;exitDx=0;exitDy=0;" edge="1" parent="1" source="o7DQFZc0UQr-MpQ6-a8O-36" target="o7DQFZc0UQr-MpQ6-a8O-36">
          <mxGeometry relative="1" as="geometry" />
        </mxCell>
        <mxCell id="o7DQFZc0UQr-MpQ6-a8O-104" style="edgeStyle=orthogonalEdgeStyle;rounded=0;orthogonalLoop=1;jettySize=auto;html=1;entryX=0.2;entryY=0.018;entryDx=0;entryDy=0;entryPerimeter=0;endArrow=none;endFill=0;" edge="1" parent="1" source="o7DQFZc0UQr-MpQ6-a8O-34" target="o7DQFZc0UQr-MpQ6-a8O-33">
          <mxGeometry relative="1" as="geometry" />
        </mxCell>
        <mxCell id="o7DQFZc0UQr-MpQ6-a8O-107" style="edgeStyle=orthogonalEdgeStyle;rounded=0;orthogonalLoop=1;jettySize=auto;html=1;entryX=0.5;entryY=0;entryDx=0;entryDy=0;endArrow=none;endFill=0;" edge="1" parent="1" source="o7DQFZc0UQr-MpQ6-a8O-105" target="o7DQFZc0UQr-MpQ6-a8O-24">
          <mxGeometry relative="1" as="geometry" />
        </mxCell>
        <mxCell id="o7DQFZc0UQr-MpQ6-a8O-116" value="&lt;b&gt;&lt;i&gt;1&lt;/i&gt;&lt;/b&gt;" style="edgeLabel;html=1;align=center;verticalAlign=middle;resizable=0;points=[];" vertex="1" connectable="0" parent="o7DQFZc0UQr-MpQ6-a8O-107">
          <mxGeometry x="0.1422" relative="1" as="geometry">
            <mxPoint as="offset" />
          </mxGeometry>
        </mxCell>
        <mxCell id="o7DQFZc0UQr-MpQ6-a8O-105" value="Tem" style="rhombus;whiteSpace=wrap;html=1;" vertex="1" parent="1">
          <mxGeometry x="110" y="-614" width="80" height="60" as="geometry" />
        </mxCell>
      </root>
    </mxGraphModel>
  </diagram>
</mxfile>
